<svg width="25" height="24" viewBox="0 0 25 24" fill="none" xmlns="http://www.w3.org/2000/svg">
<path d="M23.5621 16.6088H7.27891L8.09648 14.9436L21.6809 14.9189C22.1402 14.9189 22.534 14.5908 22.616 14.1369L24.4973 3.60684C24.5465 3.33066 24.4727 3.04629 24.2922 2.83027C24.203 2.72396 24.0917 2.63832 23.9661 2.5793C23.8405 2.52028 23.7036 2.48929 23.5648 2.48848L6.28359 2.43105L6.13594 1.73652C6.04297 1.29355 5.64375 0.970898 5.18984 0.970898H0.965234C0.709238 0.970898 0.463727 1.07259 0.282711 1.25361C0.101694 1.43462 0 1.68014 0 1.93613C0 2.19213 0.101694 2.43764 0.282711 2.61866C0.463727 2.79967 0.709238 2.90137 0.965234 2.90137H4.40781L5.05312 5.96934L6.6418 13.6611L4.59648 16.9998C4.49027 17.1432 4.42629 17.3134 4.4118 17.4912C4.3973 17.669 4.43286 17.8474 4.51445 18.0061C4.67852 18.3314 5.00937 18.5365 5.37578 18.5365H7.09297C6.72689 19.0228 6.52915 19.615 6.52969 20.2236C6.52969 21.7713 7.7875 23.0291 9.33516 23.0291C10.8828 23.0291 12.1406 21.7713 12.1406 20.2236C12.1406 19.6139 11.9383 19.0205 11.5773 18.5365H15.9824C15.6163 19.0228 15.4186 19.615 15.4191 20.2236C15.4191 21.7713 16.677 23.0291 18.2246 23.0291C19.7723 23.0291 21.0301 21.7713 21.0301 20.2236C21.0301 19.6139 20.8277 19.0205 20.4668 18.5365H23.5648C24.0953 18.5365 24.5301 18.1045 24.5301 17.5713C24.5285 17.3156 24.4258 17.0708 24.2445 16.8905C24.0631 16.7102 23.8178 16.6089 23.5621 16.6088V16.6088ZM6.68555 4.33418L22.4301 4.38613L20.8879 13.0213L8.52031 13.0432L6.68555 4.33418ZM9.33516 21.0877C8.85937 21.0877 8.47109 20.6994 8.47109 20.2236C8.47109 19.7479 8.85937 19.3596 9.33516 19.3596C9.81094 19.3596 10.1992 19.7479 10.1992 20.2236C10.1992 20.4528 10.1082 20.6726 9.94614 20.8346C9.7841 20.9967 9.56432 21.0877 9.33516 21.0877V21.0877ZM18.2246 21.0877C17.7488 21.0877 17.3605 20.6994 17.3605 20.2236C17.3605 19.7479 17.7488 19.3596 18.2246 19.3596C18.7004 19.3596 19.0887 19.7479 19.0887 20.2236C19.0887 20.4528 18.9976 20.6726 18.8356 20.8346C18.6735 20.9967 18.4538 21.0877 18.2246 21.0877V21.0877Z" fill="black"/>
</svg>
