<svg width="25" height="24" viewBox="0 0 25 24" fill="none" xmlns="http://www.w3.org/2000/svg">
<path d="M23.5621 16.6086H7.27891L8.09648 14.9434L21.6809 14.9187C22.1402 14.9187 22.534 14.5906 22.616 14.1367L24.4973 3.60664C24.5465 3.33047 24.4727 3.04609 24.2922 2.83008C24.203 2.72377 24.0917 2.63813 23.9661 2.57911C23.8405 2.52009 23.7036 2.4891 23.5648 2.48828L6.28359 2.43086L6.13594 1.73633C6.04297 1.29336 5.64375 0.970703 5.18984 0.970703H0.965234C0.709238 0.970703 0.463727 1.0724 0.282711 1.25341C0.101694 1.43443 0 1.67994 0 1.93594C0 2.19193 0.101694 2.43744 0.282711 2.61846C0.463727 2.79948 0.709238 2.90117 0.965234 2.90117H4.40781L5.05312 5.96914L6.6418 13.6609L4.59648 16.9996C4.49027 17.143 4.42629 17.3132 4.4118 17.491C4.3973 17.6689 4.43286 17.8472 4.51445 18.0059C4.67852 18.3313 5.00937 18.5363 5.37578 18.5363H7.09297C6.72689 19.0226 6.52915 19.6148 6.52969 20.2234C6.52969 21.7711 7.7875 23.0289 9.33516 23.0289C10.8828 23.0289 12.1406 21.7711 12.1406 20.2234C12.1406 19.6137 11.9383 19.0203 11.5773 18.5363H15.9824C15.6163 19.0226 15.4186 19.6148 15.4191 20.2234C15.4191 21.7711 16.677 23.0289 18.2246 23.0289C19.7723 23.0289 21.0301 21.7711 21.0301 20.2234C21.0301 19.6137 20.8277 19.0203 20.4668 18.5363H23.5648C24.0953 18.5363 24.5301 18.1043 24.5301 17.5711C24.5285 17.3154 24.4258 17.0706 24.2445 16.8903C24.0631 16.71 23.8178 16.6087 23.5621 16.6086ZM6.68555 4.33398L22.4301 4.38594L20.8879 13.0211L8.52031 13.043L6.68555 4.33398ZM9.33516 21.0875C8.85937 21.0875 8.47109 20.6992 8.47109 20.2234C8.47109 19.7477 8.85937 19.3594 9.33516 19.3594C9.81094 19.3594 10.1992 19.7477 10.1992 20.2234C10.1992 20.4526 10.1082 20.6724 9.94614 20.8344C9.7841 20.9965 9.56432 21.0875 9.33516 21.0875ZM18.2246 21.0875C17.7488 21.0875 17.3605 20.6992 17.3605 20.2234C17.3605 19.7477 17.7488 19.3594 18.2246 19.3594C18.7004 19.3594 19.0887 19.7477 19.0887 20.2234C19.0887 20.4526 18.9976 20.6724 18.8356 20.8344C18.6735 20.9965 18.4538 21.0875 18.2246 21.0875Z" fill="black"/>
</svg>
